<svg width="177" height="47" viewBox="0 0 177 47" fill="none" xmlns="http://www.w3.org/2000/svg">
<path d="M63.2372 18.6861C63.1567 17.8007 62.7985 17.1125 62.1626 16.6214C61.5348 16.1224 60.6373 15.8729 59.4702 15.8729C58.6974 15.8729 58.0535 15.9735 57.5384 16.1747C57.0232 16.3759 56.6368 16.6536 56.3793 17.0078C56.1217 17.3539 55.9889 17.7524 55.9808 18.2031C55.9647 18.5734 56.0372 18.8994 56.1982 19.1811C56.3672 19.4628 56.6087 19.7124 56.9226 19.9297C57.2446 20.139 57.6309 20.3241 58.0817 20.4851C58.5324 20.6461 59.0395 20.7869 59.603 20.9077L61.728 21.3906C62.9515 21.6562 64.0301 22.0104 64.9638 22.4531C65.9055 22.8958 66.6944 23.4231 67.3303 24.0348C67.9742 24.6465 68.4612 25.3509 68.7912 26.1477C69.1212 26.9446 69.2902 27.8381 69.2983 28.8281C69.2902 30.3897 68.8958 31.7299 68.1151 32.8487C67.3343 33.9676 66.2114 34.8248 64.7464 35.4205C63.2895 36.0161 61.5308 36.3139 59.4702 36.3139C57.4015 36.3139 55.5985 36.004 54.0611 35.3842C52.5237 34.7644 51.3284 33.8227 50.4751 32.5589C49.6219 31.2952 49.1832 29.6974 49.1591 27.7656H54.8821C54.9304 28.5625 55.1437 29.2266 55.522 29.7578C55.9003 30.2891 56.4195 30.6915 57.0795 30.9652C57.7476 31.2389 58.5204 31.3757 59.3977 31.3757C60.2027 31.3757 60.8868 31.267 61.4503 31.0497C62.0218 30.8324 62.4605 30.5305 62.7663 30.1442C63.0722 29.7578 63.2292 29.3151 63.2372 28.8161C63.2292 28.3492 63.0843 27.9508 62.8026 27.6207C62.5208 27.2827 62.0862 26.9929 61.4986 26.7514C60.919 26.5019 60.1785 26.2725 59.277 26.0632L56.6932 25.4595C54.5521 24.9685 52.8658 24.1757 51.6342 23.081C50.4027 21.9782 49.791 20.4891 49.799 18.6136C49.791 17.0843 50.2015 15.7441 51.0305 14.593C51.8596 13.442 53.0066 12.5445 54.4716 11.9006C55.9366 11.2566 57.6068 10.9347 59.4822 10.9347C61.398 10.9347 63.0601 11.2607 64.4688 11.9126C65.8854 12.5566 66.9841 13.4621 67.7649 14.6293C68.5457 15.7964 68.9441 17.1487 68.9602 18.6861H63.2372ZM77.6413 31.1342L77.6655 24.0952H78.4865L83.7024 17.4545H90.3913L82.6399 26.9688H81.0824L77.6413 31.1342ZM72.3168 36V11.2727H78.2209V36H72.3168ZM83.8352 36L78.9815 28.2969L82.8693 24.1072L90.657 36H83.8352ZM92.5043 36V17.4545H98.4084V36H92.5043ZM95.4624 15.2933C94.6333 15.2933 93.9209 15.0196 93.3253 14.4723C92.7296 13.9169 92.4318 13.2488 92.4318 12.468C92.4318 11.6953 92.7296 11.0353 93.3253 10.4879C93.9209 9.93253 94.6333 9.65483 95.4624 9.65483C96.2995 9.65483 97.0118 9.93253 97.5994 10.4879C98.1951 11.0353 98.4929 11.6953 98.4929 12.468C98.4929 13.2488 98.1951 13.9169 97.5994 14.4723C97.0118 15.0196 96.2995 15.2933 95.4624 15.2933ZM108.07 11.2727V36H102.166V11.2727H108.07ZM117.733 11.2727V36H111.828V11.2727H117.733Z" fill="white"/>
<path d="M136.45 11.2727H142.415V27.2223C142.415 29.0656 141.976 30.6714 141.099 32.0398C140.221 33.4001 138.998 34.4545 137.428 35.2031C135.858 35.9437 134.035 36.3139 131.959 36.3139C129.858 36.3139 128.023 35.9437 126.453 35.2031C124.883 34.4545 123.664 33.4001 122.795 32.0398C121.925 30.6714 121.491 29.0656 121.491 27.2223V11.2727H127.467V26.7031C127.467 27.5563 127.652 28.317 128.023 28.9851C128.401 29.6532 128.928 30.1764 129.604 30.5547C130.28 30.933 131.065 31.1222 131.959 31.1222C132.852 31.1222 133.633 30.933 134.301 30.5547C134.977 30.1764 135.504 29.6532 135.883 28.9851C136.261 28.317 136.45 27.5563 136.45 26.7031V11.2727ZM146.161 42.9545V17.4545H152.004V20.63H152.185C152.427 20.0665 152.769 19.5232 153.212 19C153.662 18.4768 154.234 18.0502 154.926 17.7202C155.626 17.3821 156.464 17.2131 157.438 17.2131C158.725 17.2131 159.929 17.5511 161.048 18.2273C162.174 18.9034 163.084 19.9458 163.776 21.3544C164.469 22.763 164.815 24.558 164.815 26.7393C164.815 28.8402 164.481 30.599 163.812 32.0156C163.152 33.4323 162.259 34.4948 161.132 35.2031C160.013 35.9115 158.77 36.2656 157.401 36.2656C156.468 36.2656 155.659 36.1127 154.974 35.8068C154.29 35.5009 153.715 35.0985 153.248 34.5994C152.789 34.1004 152.435 33.5651 152.185 32.9936H152.065V42.9545H146.161ZM151.944 26.7273C151.944 27.7254 152.077 28.5947 152.342 29.3352C152.616 30.0758 153.006 30.6513 153.513 31.0618C154.029 31.4643 154.644 31.6655 155.361 31.6655C156.085 31.6655 156.701 31.4643 157.208 31.0618C157.715 30.6513 158.098 30.0758 158.355 29.3352C158.621 28.5947 158.754 27.7254 158.754 26.7273C158.754 25.7292 158.621 24.8639 158.355 24.1314C158.098 23.3989 157.715 22.8314 157.208 22.429C156.709 22.0265 156.093 21.8253 155.361 21.8253C154.636 21.8253 154.021 22.0225 153.513 22.4169C153.006 22.8113 152.616 23.3748 152.342 24.1072C152.077 24.8397 151.944 25.7131 151.944 26.7273Z" fill="#FFCC00"/>
<circle cx="16.4397" cy="13.8788" r="4" fill="#FFCC00"/>
<rect x="37.0303" y="16.8788" width="8" height="21.3617" rx="4" transform="rotate(39.5103 37.0303 16.8788)" fill="#FFCC00"/>
<rect x="30.4043" y="8" width="8" height="30.4996" rx="4" transform="rotate(39.5103 30.4043 8)" fill="#FFCC00"/>
</svg>
